<?xml version="1.0" standalone="no"?>
<!DOCTYPE svg PUBLIC "-//W3C//DTD SVG 20010904//EN"
 "http://www.w3.org/TR/2001/REC-SVG-20010904/DTD/svg10.dtd">
<svg version="1.0" xmlns="http://www.w3.org/2000/svg"
 width="256.000000pt" height="256.000000pt" viewBox="0 0 256.000000 256.000000"
 preserveAspectRatio="xMidYMid meet">
<metadata>
Created by potrace 1.11, written by Peter Selinger 2001-2013
</metadata>
<g transform="translate(0.000000,256.000000) scale(0.100000,-0.100000)"
fill="#000000" stroke="none">
<path d="M1375 2142 c-157 -17 -315 -100 -441 -229 l-73 -76 -43 13 c-68 21
-214 18 -273 -4 -148 -58 -254 -194 -267 -346 -3 -40 -2 -40 73 -17 31 9 73
18 94 19 31 3 43 11 74 49 68 87 168 139 261 134 60 -3 113 -14 125 -26 16
-16 31 -10 100 45 259 206 603 220 875 36 60 -41 166 -149 196 -199 11 -18 30
-34 44 -37 81 -17 73 -21 66 37 -26 194 -172 404 -351 504 -52 30 -195 89
-203 85 -1 -1 -21 2 -45 5 -52 7 -172 11 -212 7z"/>
<path d="M1335 1766 c-134 -29 -242 -91 -344 -199 l-40 -42 -29 22 c-49 36
-93 49 -155 46 -88 -4 -152 -47 -193 -128 -26 -50 -26 -51 -77 -53 -181 -6
-321 -85 -419 -236 -50 -78 -71 -151 -72 -256 -2 -108 16 -177 64 -260 64
-110 160 -187 288 -229 61 -21 76 -21 927 -21 l865 0 73 26 c69 25 175 92 207
131 43 52 83 119 104 175 20 54 23 80 21 184 -2 117 -3 122 -39 198 -80 166
-252 282 -428 288 -34 1 -41 6 -78 65 -88 135 -202 223 -355 274 -77 26 -237
33 -320 15z"/>
</g>
</svg>
